<mxfile host="app.diagrams.net" agent="Mozilla/5.0 (Macintosh; Intel Mac OS X 10_15_7) AppleWebKit/537.36 (KHTML, like Gecko) Chrome/131.0.0.0 Safari/537.36" version="26.0.2">
  <diagram name="Page-1" id="CGUPLV2wjCHbOQtDTxpw">
    <mxGraphModel dx="1434" dy="735" grid="1" gridSize="10" guides="1" tooltips="1" connect="1" arrows="1" fold="1" page="1" pageScale="1" pageWidth="850" pageHeight="1100" math="0" shadow="0">
      <root>
        <mxCell id="0" />
        <mxCell id="1" parent="0" />
        <mxCell id="ePQsbAZNRMEwGQBpX5xO-13" style="edgeStyle=orthogonalEdgeStyle;rounded=0;orthogonalLoop=1;jettySize=auto;html=1;entryX=0;entryY=0.5;entryDx=0;entryDy=0;" edge="1" parent="1" source="ePQsbAZNRMEwGQBpX5xO-2" target="ePQsbAZNRMEwGQBpX5xO-3">
          <mxGeometry relative="1" as="geometry" />
        </mxCell>
        <mxCell id="ePQsbAZNRMEwGQBpX5xO-14" style="edgeStyle=orthogonalEdgeStyle;rounded=0;orthogonalLoop=1;jettySize=auto;html=1;entryX=0;entryY=0.5;entryDx=0;entryDy=0;" edge="1" parent="1" source="ePQsbAZNRMEwGQBpX5xO-2" target="ePQsbAZNRMEwGQBpX5xO-4">
          <mxGeometry relative="1" as="geometry" />
        </mxCell>
        <mxCell id="ePQsbAZNRMEwGQBpX5xO-15" style="edgeStyle=orthogonalEdgeStyle;rounded=0;orthogonalLoop=1;jettySize=auto;html=1;entryX=0;entryY=0.5;entryDx=0;entryDy=0;" edge="1" parent="1" source="ePQsbAZNRMEwGQBpX5xO-2" target="ePQsbAZNRMEwGQBpX5xO-16">
          <mxGeometry relative="1" as="geometry">
            <mxPoint x="300" y="570" as="targetPoint" />
          </mxGeometry>
        </mxCell>
        <mxCell id="ePQsbAZNRMEwGQBpX5xO-2" value="Actor" style="shape=umlActor;verticalLabelPosition=bottom;verticalAlign=top;html=1;outlineConnect=0;" vertex="1" parent="1">
          <mxGeometry x="100" y="380" width="30" height="60" as="geometry" />
        </mxCell>
        <mxCell id="ePQsbAZNRMEwGQBpX5xO-3" value="Create Profile" style="ellipse;whiteSpace=wrap;html=1;" vertex="1" parent="1">
          <mxGeometry x="260" y="310" width="120" height="80" as="geometry" />
        </mxCell>
        <mxCell id="ePQsbAZNRMEwGQBpX5xO-4" value="Update Profile" style="ellipse;whiteSpace=wrap;html=1;" vertex="1" parent="1">
          <mxGeometry x="260" y="420" width="120" height="80" as="geometry" />
        </mxCell>
        <mxCell id="ePQsbAZNRMEwGQBpX5xO-11" style="edgeStyle=orthogonalEdgeStyle;rounded=0;orthogonalLoop=1;jettySize=auto;html=1;" edge="1" parent="1" source="ePQsbAZNRMEwGQBpX5xO-5" target="ePQsbAZNRMEwGQBpX5xO-7">
          <mxGeometry relative="1" as="geometry" />
        </mxCell>
        <mxCell id="ePQsbAZNRMEwGQBpX5xO-12" style="edgeStyle=orthogonalEdgeStyle;rounded=0;orthogonalLoop=1;jettySize=auto;html=1;" edge="1" parent="1" source="ePQsbAZNRMEwGQBpX5xO-5" target="ePQsbAZNRMEwGQBpX5xO-6">
          <mxGeometry relative="1" as="geometry" />
        </mxCell>
        <mxCell id="ePQsbAZNRMEwGQBpX5xO-5" value="Admin" style="shape=umlActor;verticalLabelPosition=bottom;verticalAlign=top;html=1;outlineConnect=0;" vertex="1" parent="1">
          <mxGeometry x="100" y="110" width="30" height="60" as="geometry" />
        </mxCell>
        <mxCell id="ePQsbAZNRMEwGQBpX5xO-6" value="Manage Activities" style="ellipse;whiteSpace=wrap;html=1;" vertex="1" parent="1">
          <mxGeometry x="260" y="160" width="120" height="80" as="geometry" />
        </mxCell>
        <mxCell id="ePQsbAZNRMEwGQBpX5xO-7" value="Manage Profiles" style="ellipse;whiteSpace=wrap;html=1;" vertex="1" parent="1">
          <mxGeometry x="260" y="50" width="120" height="80" as="geometry" />
        </mxCell>
        <mxCell id="ePQsbAZNRMEwGQBpX5xO-16" value="Add Activity Entry" style="ellipse;whiteSpace=wrap;html=1;" vertex="1" parent="1">
          <mxGeometry x="260" y="530" width="120" height="80" as="geometry" />
        </mxCell>
      </root>
    </mxGraphModel>
  </diagram>
</mxfile>
